<?xml version="1.0" encoding="UTF-8"?>
<svg width="66px" height="66px" viewBox="0 0 66 66" version="1.1" xmlns="http://www.w3.org/2000/svg" xmlns:xlink="http://www.w3.org/1999/xlink">
    <!-- Generator: Sketch 62 (91390) - https://sketch.com -->
    <title>avatar_potok</title>
    <desc>Created with Sketch.</desc>
    <g id="logos" stroke="none" stroke-width="1" fill="none" fill-rule="evenodd">
        <g transform="translate(-157.000000, -210.000000)" id="avatar_potok">
            <g transform="translate(158.000000, 211.000000)">
                <circle id="Oval" stroke="#DDDDDD" fill="#FFFFFF" cx="32" cy="32" r="32"></circle>
                <g id="potok" transform="translate(6.000000, 10.000000)">
                    <path d="M30.705743,11.6941751 C30.0740864,11.6981371 29.447792,11.5806558 28.8632326,11.3485356 C28.2787626,11.1164153 27.7474669,10.774221 27.3001775,10.3418486 L28.2317548,9.43188553 C28.8908475,10.0622707 29.7795278,10.415662 30.7053855,10.415662 C31.6313325,10.415662 32.5200129,10.0622707 33.1791056,9.43188553 C33.5034239,9.12147314 33.7610733,8.75163108 33.9368611,8.34397797 C34.112649,7.93623872 34.2031792,7.49878464 34.2031792,7.0568518 C34.2031792,6.61500509 34.112649,6.1775424 33.9368611,5.76984622 C33.7610733,5.36215004 33.5034239,4.99235104 33.1791056,4.6819042 C32.5187617,4.05386174 31.6305282,3.70202084 30.7053855,3.70202084 C29.7802428,3.70202084 28.8920986,4.05386174 28.2317548,4.6819042 L22.256836,10.2955968 C21.3433022,11.1639591 20.1148607,11.6504211 18.8353719,11.6504211 C17.555892,11.6504211 16.3274504,11.1639591 15.4139167,10.2955968 C14.9658945,9.86486085 14.6102874,9.35238758 14.3676135,8.78771954 C14.1249396,8.22313763 14,7.61747173 14,7.00577673 C14,6.39408174 14.1249396,5.78848474 14.3676135,5.22384254 C14.6102874,4.65920035 14.9658945,4.14670984 15.4139167,3.71594806 C16.3256363,2.84425254 17.5547659,2.35554252 18.8353719,2.35554252 C20.1159867,2.35554252 21.3451075,2.84425254 22.256836,3.71594806 L21.3252855,4.6259025 C20.6655315,3.99084906 19.7734641,3.63445189 18.8436831,3.63445189 C17.9138933,3.63445189 17.0218258,3.99084906 16.3620807,4.6259025 C16.0364041,4.93723648 15.7778074,5.30819823 15.6012956,5.71722942 C15.4247928,6.12626923 15.3339051,6.56522197 15.3339051,7.00861902 C15.3339051,7.45192994 15.4247928,7.89093436 15.6012956,8.29996556 C15.7778074,8.70899675 16.0364041,9.0799585 16.3620807,9.39131832 C17.0218258,10.0263545 17.9138933,10.3827603 18.8436831,10.3827603 C19.7734641,10.3827603 20.6655315,10.0263545 21.3252855,9.39131832 L27.3016074,3.78034743 C28.209502,2.91363884 29.4325993,2.42782278 30.7068154,2.42782278 C31.9811208,2.42782278 33.2042181,2.91363884 34.1120234,3.78034743 C34.5586871,4.21020485 34.913212,4.72148954 35.1551325,5.28472781 C35.397053,5.84796609 35.5215434,6.4520472 35.5215434,7.06210573 C35.5215434,7.67225039 35.397053,8.27627982 35.1551325,8.83956978 C34.913212,9.4027736 34.5586871,9.91404106 34.1120234,10.3439157 C33.2023414,11.2082299 31.9796016,11.6928832 30.705743,11.6941751 L30.705743,11.6941751 Z M24.6023212,11.3252805 L23.670744,10.4334909 L28.8282001,5.46866696 C29.2720041,5.04041156 29.8726498,4.79997977 30.4988549,4.79997977 C31.12506,4.79997977 31.725795,5.04041156 32.1695096,5.46866696 C32.3872113,5.67959063 32.5598713,5.93003072 32.6777483,6.20562938 C32.795536,6.48133139 32.8562172,6.77675716 32.8562172,7.07511135 C32.8562172,7.37346555 32.795536,7.66889132 32.6777483,7.9445072 C32.5598713,8.22012308 32.3872113,8.47058901 32.1695096,8.68152129 C31.725795,9.10975947 31.12506,9.35023433 30.4988549,9.35023433 C29.8726498,9.35023433 29.2720041,9.10975947 28.8282001,8.68152129 L29.7597774,7.78973166 C29.9584436,7.97465269 30.2231531,8.07792251 30.4984974,8.07792251 C30.7739311,8.07792251 31.0386406,7.97465269 31.2372174,7.78973166 C31.4300747,7.60196834 31.5382999,7.34771269 31.5382999,7.08277692 C31.5382999,6.81784116 31.4300747,6.56367163 31.2372174,6.37582219 C31.0386406,6.19090115 30.7739311,6.08769162 30.4984974,6.08769162 C30.2231531,6.08769162 29.9584436,6.19090115 29.7597774,6.37582219 L24.6023212,11.3252805 Z M30.6906397,13.9999376 C28.7602801,14.0077982 26.9056156,13.2724206 25.5346134,11.9552351 L26.4661013,11.0635315 C27.5912507,12.1349022 29.1054212,12.735228 30.6826859,12.735228 C32.2598612,12.735228 33.7740317,12.1349022 34.8991811,11.0635315 C35.452819,10.5358133 35.8924226,9.90663389 36.1926114,9.21251252 C36.4927109,8.51847727 36.6473184,7.77345309 36.6473184,7.02084948 C36.6473184,6.26824586 36.4927109,5.52321307 36.1926114,4.82913476 C35.8924226,4.13505646 35.452819,3.50584262 34.8991811,2.97818463 C33.7740317,1.9067968 32.2598612,1.3064968 30.6826859,1.3064968 C29.1054212,1.3064968 27.5912507,1.9067968 26.4661013,2.97818463 L21.7917802,7.40473072 L20.5872626,8.55758028 C20.1403486,8.98599071 19.5371827,9.22620718 18.9086719,9.22620718 C18.2801611,9.22620718 17.6769952,8.98599071 17.2300812,8.55758028 C17.0111195,8.3457867 16.8374139,8.09420108 16.7188934,7.81720712 C16.6003729,7.54029928 16.539361,7.24332317 16.539361,6.94350477 C16.539361,6.64360024 16.6003729,6.34671026 16.7188934,6.06975936 C16.8374139,5.79279124 17.0111195,5.54118839 17.2300812,5.32936897 C17.6769952,4.90101883 18.2801611,4.66077652 18.9086719,4.66077652 C19.5371827,4.66077652 20.1403486,4.90101883 20.5872626,5.32936897 L19.6571599,6.22182181 C19.5590601,6.12673433 19.4425951,6.05130171 19.3144138,5.99983906 C19.1862326,5.94837641 19.0488553,5.92189144 18.9101197,5.92189144 C18.7713751,5.92189144 18.6339978,5.94837641 18.5058166,5.99983906 C18.3776443,6.05130171 18.2611703,6.12673433 18.1630705,6.22182181 C17.9691141,6.40924061 17.8593338,6.663324 17.857609,6.92877655 C17.856903,7.06046926 17.8835973,7.19095615 17.9360745,7.3123994 C17.9885606,7.43392878 18.0657572,7.54383061 18.1630705,7.63573128 C18.2611703,7.73081876 18.3776443,7.80626861 18.5058166,7.85777433 C18.6339978,7.90919392 18.7713751,7.93572194 18.9101197,7.93572194 C19.0488553,7.93572194 19.1862326,7.90919392 19.3144138,7.85777433 C19.4425951,7.80626861 19.5590601,7.73081876 19.6571599,7.63573128 L20.8768433,6.46823964 L25.551236,2.04092699 C26.9280471,0.73275066 28.7792262,8.8817842e-16 30.7071729,8.8817842e-16 C32.6352089,8.8817842e-16 34.486388,0.73275066 35.8631991,2.04092699 C36.5398081,2.68456759 37.0772702,3.45248511 37.4441279,4.29978862 C37.811075,5.14709213 38,6.05678819 38,6.97571738 C38,7.89463795 37.811075,8.80425649 37.4441279,9.65160307 C37.0772702,10.4988635 36.5398081,11.2667983 35.8631991,11.9104475 C35.1881989,12.5751985 34.3828099,13.1024862 33.494487,13.4613036 C32.6062535,13.820121 31.6529597,14.0032333 30.6906397,13.9999376 L30.6906397,13.9999376 Z" id="Shape" fill="#26BDFC" fill-rule="nonzero"></path>
                    <path d="M54,32.0508798 L52.0115949,32.0508798 L48.4340376,27.2554102 L46.8213948,28.8716475 L46.8213948,32.0584494 L45.208752,32.0584494 L45.208752,18 L46.8213948,18 L46.8213948,26.8742085 L51.4792577,22.2083918 L53.4676628,22.2083918 L49.5691837,26.1118307 L54,32.0508798 Z M37.8579406,32.1957228 C34.961436,32.1957228 32.6129873,30.2210777 32.6129873,27.1105672 C32.6129873,24.1372451 34.961436,22.0254201 37.8579406,22.0254201 C40.7544451,22.0254201 43.1028939,24.0152639 43.1028939,27.1105672 C43.1028939,30.2592659 40.7544451,32.1957228 37.8579406,32.1957228 Z M37.8579406,23.5654511 C35.8930261,23.5654511 34.3038739,25.0521121 34.3038739,27.1334461 C34.3038739,29.3139163 35.8930261,30.7014497 37.8579406,30.7014497 C39.8228551,30.7014497 41.4120073,29.3443649 41.4120073,27.1334461 C41.4120073,24.960622 39.8228551,23.5654511 37.8579406,23.5654511 Z M28.5187241,32.1957228 C26.8199782,32.1957228 25.0977417,31.5705079 25.0977417,28.9021811 L25.0977417,19.0978387 L26.7103845,19.0978387 L26.7103845,22.1702716 L30.8828914,22.1702716 L30.8828914,23.7408021 L26.7103845,23.7408021 L26.7103845,28.9021811 C26.7103845,30.0305619 27.5010309,30.693795 28.550074,30.693795 C30.1548575,30.693795 30.9925437,29.9619252 30.9925437,29.9619252 L30.9925437,31.5019562 C31.0003445,31.5019562 30.21747,32.1957228 28.5187241,32.1957228 Z M17.5277429,32.1957228 C14.6312383,32.1957228 12.2827022,30.2210777 12.2827022,27.1105672 C12.2827022,24.1372451 14.6312383,22.0254201 17.5277429,22.0254201 C20.4242474,22.0254201 22.7726962,24.0152639 22.7726962,27.1105672 C22.7726962,30.2592659 20.4242474,32.1957228 17.5277429,32.1957228 Z M17.5277429,23.5654511 C15.5628284,23.5654511 13.9736762,25.0521121 13.9736762,27.1334461 C13.9736762,29.3139163 15.5628284,30.7014497 17.5277429,30.7014497 C19.4926574,30.7014497 21.0818096,29.3443649 21.0818096,27.1334461 C21.0818096,24.960622 19.4926574,23.5654511 17.5277429,23.5654511 Z M5.44859673,32.233826 C3.90642571,32.233826 2.52860158,31.5095258 1.61264281,30.3660058 L1.61264281,36 L0,36 L0,22.2007711 L1.61264281,22.2007711 L1.61264281,23.8856537 C2.52074227,22.7496948 3.8985664,22.0177994 5.44859673,22.0177994 C8.18852638,22.0177994 10.4117502,24.2211061 10.4117502,27.1257915 C10.4117502,30.091544 8.18852638,32.233826 5.44859673,32.233826 Z M5.15107823,23.5654511 C3.20179503,23.5654511 1.62050212,25.1664726 1.62050212,27.1334461 C1.62050212,29.1004366 3.20179503,30.7014497 5.15107823,30.7014497 C7.10036143,30.7014497 8.68165434,29.1995218 8.68165434,27.1334461 C8.68165434,25.0978529 7.10036143,23.5654511 5.15107823,23.5654511 Z" id="Shape" fill="#000000"></path>
                </g>
            </g>
        </g>
    </g>
</svg>