<?xml version="1.0" encoding="UTF-8"?>
<svg width="66px" height="66px" viewBox="0 0 66 66" version="1.1" xmlns="http://www.w3.org/2000/svg" xmlns:xlink="http://www.w3.org/1999/xlink">
    <!-- Generator: Sketch 63.1 (92452) - https://sketch.com -->
    <title>avatar_snami_stage</title>
    <desc>Created with Sketch.</desc>
    <defs>
        <circle id="path-1" cx="32" cy="32" r="32"></circle>
    </defs>
    <g id="Page-1" stroke="none" stroke-width="1" fill="none" fill-rule="evenodd">
        <g id="avatar_snami_stage" transform="translate(1.000000, 1.000000)">
            <mask id="mask-2" fill="white">
                <use xlink:href="#path-1"></use>
            </mask>
            <use id="Oval" stroke="#DDDDDD" fill="#FFFFFF" fill-rule="nonzero" xlink:href="#path-1"></use>
            <g id="STAGE" mask="url(#mask-2)">
                <g transform="translate(0.000000, 45.000000)">
                    <rect id="Rectangle" fill="#FF5A6E" x="0" y="0" width="65" height="19"></rect>
                    <text id="STAGE" fill="#FFFFFF" font-family="GothamPro-Bold, Gotham Pro" font-size="12" font-weight="bold">
                        <tspan x="12" y="11">STAGE</tspan>
                    </text>
                </g>
            </g>
            <g id="snami_blue" mask="url(#mask-2)">
                <g transform="translate(4.000000, 28.000000)" id="Group">
                    <g>
                        <path d="M7.41052189,14 C5.26608783,14 3.49489574,13.3269818 2.09693201,11.9807673 C0.698977789,10.6346164 0,8.97435636 0,7 C0,5.01281455 0.698977789,3.35256727 2.09693201,2.01923273 C3.49489574,0.673076727 5.26608783,0 7.41052189,0 C8.69990564,0 9.88748379,0.288461091 10.9732699,0.865384545 C12.0726319,1.42948909 12.9276958,2.19871273 13.5384615,3.17307455 L11.1157896,4.5 C10.7628979,3.89743455 10.2607257,3.42949091 9.60924592,3.09615091 C8.95777968,2.74999455 8.22487166,2.57691636 7.41052189,2.57691636 C6.02613405,2.57691636 4.90642177,2.98718 4.0513579,3.80769455 C3.20986992,4.62820909 2.78912593,5.69231091 2.78912593,7 C2.78912593,8.29487273 3.20986992,9.35256 4.0513579,10.1730745 C4.90642177,10.9935891 6.02613405,11.40384 7.41052189,11.40384 C8.22487166,11.40384 8.95777968,11.2371764 9.60924592,10.9038491 C10.2743016,10.5576927 10.7764738,10.0897491 11.1157896,9.5 L13.5384615,10.8269255 C12.9276958,11.8012873 12.0794199,12.5769255 10.9936338,13.1538909 C9.90784763,13.7179636 8.71346795,14 7.41052189,14 Z" id="Path" fill="#0433FF" fill-rule="nonzero"></path>
                        <polygon id="Path" fill="#0433FF" fill-rule="nonzero" points="20.9526914 4.26086957 23.3846154 4.26086957 23.3846154 14 20.9526914 14 20.9526914 10.2474887 17.2011548 10.2474887 17.2011548 14 14.7692308 14 14.7692308 4.26086957 17.2011548 4.26086957 17.2011548 8.02174435 20.9526914 8.02174435"></polygon>
                        <path d="M32.554413,4.26086957 L35.0769231,4.26086957 L35.0769231,14 L32.554413,14 L32.554413,12.6534935 C31.7983771,13.551132 30.7359108,14 29.3670138,14 C28.0634453,14 26.9423007,13.5326987 26.0037105,12.5981571 C25.0781599,11.6512982 24.6153846,10.4953867 24.6153846,9.13043478 C24.6153846,7.76548284 25.0781599,6.61572388 26.0037105,5.68115789 C26.9423007,4.73429901 28.0634453,4.26086957 29.3670138,4.26086957 C30.7359108,4.26086957 31.7983771,4.70970099 32.554413,5.60737605 L32.554413,4.26086957 Z M27.9004503,11.0118596 C28.4088642,11.4914416 29.0541939,11.7312204 29.836309,11.7312204 C30.6185544,11.7312204 31.2638841,11.4914416 31.772298,11.0118596 C32.2937514,10.5199847 32.554413,9.89283905 32.554413,9.13043478 C32.554413,8.36803051 32.2937514,7.74703738 31.772298,7.26745538 C31.2638841,6.77558047 30.6185544,6.52963692 29.836309,6.52963692 C29.0541939,6.52963692 28.4088642,6.77558047 27.9004503,7.26745538 C27.3920364,7.74703738 27.1378947,8.36803051 27.1378947,9.13043478 C27.1378947,9.89283905 27.3920364,10.5199847 27.9004503,11.0118596 Z" id="Shape" fill="#0433FF" fill-rule="nonzero"></path>
                        <polygon id="Path" fill="#0433FF" fill-rule="nonzero" points="46.1538462 4.26086957 46.1538462 14 43.7870065 14 43.7870065 8.3557254 41.3822874 12.0447933 41.0792511 12.0447933 38.6555922 8.31883448 38.6555922 14 36.3076923 14 36.3076923 4.26086957 38.7124115 4.26086957 41.2307692 8.39261632 43.749127 4.26086957"></polygon>
                        <polygon id="Path" fill="#0433FF" fill-rule="nonzero" points="54.1902312 4.26086957 56 4.26086957 56 14 53.624647 14 53.624647 8.50328909 49.1943842 14 47.3846154 14 47.3846154 4.26086957 49.7599684 4.26086957 49.7599684 9.75756827"></polygon>
                    </g>
                </g>
            </g>
            <g id="check_blue" mask="url(#mask-2)">
                <g transform="translate(18.000000, 14.000000)" id="Combined-Shape-2">
                    <g>
                        <g id="Group-2" fill-rule="nonzero">
                            <path d="M5.09090909,10 C2.25119715,9.83881284 0,7.66242104 0,5 C0,2.33757896 2.25119715,0.161187164 5.09004876,0.00855312837 L5.09090909,0 L22.9090909,0 C25.7488029,0.161187164 28,2.33757896 28,5 C28,7.66242104 25.7488029,9.83881284 22.9099512,9.99144687 L22.9090909,10 L5.09090909,10 Z" id="Combined-Shape" fill="#0433FF"></path>
                            <ellipse id="Oval-Copy-2" fill="#FFFFFF" cx="22.5909091" cy="5" rx="4.77272727" ry="4.41176471"></ellipse>
                        </g>
                    </g>
                </g>
            </g>
        </g>
    </g>
</svg>