<svg width="24" height="24" viewBox="0 0 24 24" fill="none" xmlns="http://www.w3.org/2000/svg">
<path d="M4.28125 4.75C3.2793 4.75 2.5 5.56641 2.5 6.53125V17.2188C2.5 18.2207 3.2793 19 4.28125 19H9.17969C9.40234 19 9.625 18.8145 9.625 18.5547V18.2578C9.625 18.0352 9.40234 17.8125 9.17969 17.8125H4.28125C3.94727 17.8125 3.6875 17.5527 3.6875 17.2188V6.53125C3.6875 6.23438 3.94727 5.9375 4.28125 5.9375H9.17969C9.40234 5.9375 9.625 5.75195 9.625 5.49219V5.19531C9.625 4.97266 9.40234 4.75 9.17969 4.75H4.28125ZM14.6348 5.49219L14.3379 5.75195C14.1895 5.9375 14.1895 6.19727 14.3379 6.38281L19.2363 11.2441H8.88281C8.62305 11.2441 8.4375 11.4668 8.4375 11.6895V12.0605C8.4375 12.3203 8.62305 12.5059 8.88281 12.5059H19.2363L14.375 17.4043C14.1895 17.5898 14.1895 17.8496 14.375 18.0352L14.6348 18.2949C14.7832 18.4805 15.0801 18.4805 15.2656 18.2949L21.3516 12.209C21.5371 12.0234 21.5371 11.7637 21.3516 11.5781L15.2656 5.49219C15.0801 5.30664 14.7832 5.30664 14.6348 5.49219Z" fill="#26BDFC"/>
</svg>
