<?xml version="1.0" encoding="UTF-8"?>
<svg width="200px" height="43px" viewBox="0 0 200 43" version="1.1" xmlns="http://www.w3.org/2000/svg" xmlns:xlink="http://www.w3.org/1999/xlink">
    <!-- Generator: Sketch 62 (91390) - https://sketch.com -->
    <title>logo_potok</title>
    <desc>Created with Sketch.</desc>
    <g id="logos" stroke="none" stroke-width="1" fill="none" fill-rule="evenodd">
        <g transform="translate(-215.000000, -170.000000)" id="blueOnWhite">
            <g transform="translate(200.000000, 0.000000)">
                <g id="logo_potok" transform="translate(15.000000, 170.000000)">
                    <path d="M37.3862,32.8084 C35.9726,32.8176 34.571,32.5448 33.2628,32.0058 C31.9548,31.4668 30.7658,30.6722 29.7648,29.6682 L31.8496,27.5552 C33.3246,29.019 35.3134,29.8396 37.3854,29.8396 C39.4576,29.8396 41.4464,29.019 42.9214,27.5552 C43.6472,26.8344 44.2238,25.9756 44.6172,25.029 C45.0106,24.0822 45.2132,23.0664 45.2132,22.0402 C45.2132,21.0142 45.0106,19.99838 44.6172,19.05168 C44.2238,18.10498 43.6472,17.24628 42.9214,16.5254 C41.4436,15.06704 39.4558,14.25004 37.3854,14.25004 C35.315,14.25004 33.3274,15.06704 31.8496,16.5254 L18.47818,29.5608 C16.43376,31.5772 13.6846,32.7068 10.8212,32.7068 C7.95782,32.7068 5.20866,31.5772 3.16424,29.5608 C2.1616,28.5606 1.365778,27.3706 0.822692,26.0594 C0.279606,24.7484 5.03003999e-07,23.342 5.03003999e-07,21.9216 C5.03003999e-07,20.5012 0.279606,19.09496 0.822692,17.78382 C1.365778,16.47268 2.1616,15.28264 3.16424,14.28238 C5.2046,12.25824 7.9553,11.12342 10.8212,11.12342 C13.68712,11.12342 16.4378,12.25824 18.47818,14.28238 L16.39344,16.39536 C14.91696,14.92072 12.92058,14.09314 10.8398,14.09314 C8.759,14.09314 6.76262,14.92072 5.28616,16.39536 C4.55732,17.1183 3.9786,17.9797 3.58358,18.9295 C3.18858,19.87932 2.98518,20.8986 2.98518,21.9282 C2.98518,22.9576 3.18858,23.977 3.58358,24.9268 C3.9786,25.8766 4.55732,26.738 5.28616,27.461 C6.76262,28.9356 8.759,29.7632 10.8398,29.7632 C12.92058,29.7632 14.91696,28.9356 16.39344,27.461 L29.768,14.43192 C31.7998,12.41936 34.537,11.29126 37.3886,11.29126 C40.2404,11.29126 42.9776,12.41936 45.0092,14.43192 C46.0088,15.43008 46.8022,16.61732 47.3436,17.9252 C47.885,19.23308 48.1636,20.6358 48.1636,22.0524 C48.1636,23.4692 47.885,24.8718 47.3436,26.1798 C46.8022,27.4876 46.0088,28.6748 45.0092,29.673 C42.9734,31.68 40.237,32.8054 37.3862,32.8084 L37.3862,32.8084 Z M23.7272,31.9518 L21.6424,29.881 L33.1844,18.35232 C34.1776,17.35788 35.5218,16.79958 36.9232,16.79958 C38.3246,16.79958 39.669,17.35788 40.662,18.35232 C41.1492,18.8421 41.5356,19.42364 41.7994,20.0636 C42.063,20.7038 42.1988,21.3898 42.1988,22.0826 C42.1988,22.7754 42.063,23.4614 41.7994,24.1014 C41.5356,24.7414 41.1492,25.323 40.662,25.8128 C39.669,26.8072 38.3246,27.3656 36.9232,27.3656 C35.5218,27.3656 34.1776,26.8072 33.1844,25.8128 L35.2692,23.742 C35.7138,24.1714 36.3062,24.4112 36.9224,24.4112 C37.5388,24.4112 38.1312,24.1714 38.5756,23.742 C39.0072,23.306 39.2494,22.7156 39.2494,22.1004 C39.2494,21.4852 39.0072,20.895 38.5756,20.4588 C38.1312,20.0294 37.5388,19.78974 36.9224,19.78974 C36.3062,19.78974 35.7138,20.0294 35.2692,20.4588 L23.7272,31.9518 Z M37.3524,38.1625472 C33.0324,38.1808 28.8818,36.4732 25.8136,33.4146 L27.8982,31.344 C30.4162,33.8318 33.8048,35.2258 37.3346,35.2258 C40.8642,35.2258 44.2528,33.8318 46.7708,31.344 C48.0098,30.1186 48.9936,28.6576 49.6654,27.0458 C50.337,25.4342 50.683,23.7042 50.683,21.9566 C50.683,20.209 50.337,18.47898 49.6654,16.86728 C48.9936,15.25558 48.0098,13.7945 46.7708,12.56924 C44.2528,10.0814 40.8642,8.68746 37.3346,8.68746 C33.8048,8.68746 30.4162,10.0814 27.8982,12.56924 L17.43742,22.848 L14.7418,25.525 C13.74164,26.5198 12.3918,27.0776 10.98524,27.0776 C9.57868,27.0776 8.22884,26.5198 7.22868,25.525 C6.73866,25.0332 6.34992,24.449 6.08468,23.8058 C5.81944,23.1628 5.6829,22.4732 5.6829,21.777 C5.6829,21.0806 5.81944,20.3912 6.08468,19.7481 C6.34992,19.10496 6.73866,18.52072 7.22868,18.02886 C8.22884,17.0342 9.57868,16.47634 10.98524,16.47634 C12.3918,16.47634 13.74164,17.0342 14.7418,18.02886 L12.6603,20.1012 C12.44076,19.8804 12.18012,19.70524 11.89326,19.58574 C11.6064,19.46624 11.29896,19.40474 10.98848,19.40474 C10.67798,19.40474 10.37054,19.46624 10.08368,19.58574 C9.79684,19.70524 9.53618,19.8804 9.31664,20.1012 C8.88258,20.5364 8.6369,21.1264 8.63304,21.7428 C8.63146,22.0486 8.6912,22.3516 8.80864,22.6336 C8.9261,22.9158 9.09886,23.171 9.31664,23.3844 C9.53618,23.6052 9.79684,23.7804 10.08368,23.9 C10.37054,24.0194 10.67798,24.081 10.98848,24.081 C11.29896,24.081 11.6064,24.0194 11.89326,23.9 C12.18012,23.7804 12.44076,23.6052 12.6603,23.3844 L15.38986,20.6734 L25.8508,10.39286 C28.932,7.35518 33.0748,5.65368 37.3894,5.65368 C41.7042,5.65368 45.847,7.35518 48.9282,10.39286 C50.4424,11.88744 51.6452,13.6706 52.4662,15.6381 C53.2874,17.6056 53.7102,19.71798 53.7102,21.8518 C53.7102,23.9856 53.2874,26.0978 52.4662,28.0654 C51.6452,30.0328 50.4424,31.816 48.9282,33.3106 C47.4176,34.8542 45.6152,36.0786 43.6272,36.9118 C41.6394,37.745 39.506,38.1702 37.3524,38.1625472 L37.3524,38.1625472 Z" id="Shape" fill="#26BDFC" fill-rule="nonzero"></path>
                    <path d="M200,33.0408 L195.446,33.0408 L187.2524,21.7642 L183.559,25.5648 L183.559,33.0586 L179.8656,33.0586 L179.8656,0 L183.559,0 L183.559,20.8678 L194.2268,9.89608 L198.7808,9.89608 L189.8522,19.07506 L200,33.0408 Z M163.0302,33.3814 C156.3964,33.3814 151.0178,28.738 151.0178,21.4236 C151.0178,14.4318 156.3964,9.46582 163.0302,9.46582 C169.664,9.46582 175.0426,14.14496 175.0426,21.4236 C175.0426,28.8278 169.664,33.3814 163.0302,33.3814 Z M163.0302,13.08722 C158.53,13.08722 154.8904,16.58312 154.8904,21.4774 C154.8904,26.6048 158.53,29.8676 163.0302,29.8676 C167.5304,29.8676 171.17,26.6764 171.17,21.4774 C171.17,16.36798 167.5304,13.08722 163.0302,13.08722 Z M141.6408,33.3814 C137.7502,33.3814 133.8058,31.9112 133.8058,25.6366 L133.8058,2.58158 L137.4992,2.58158 L137.4992,9.80644 L147.0554,9.80644 L147.0554,13.49956 L137.4992,13.49956 L137.4992,25.6366 C137.4992,28.29 139.31,29.8496 141.7126,29.8496 C145.388,29.8496 147.306534,28.1286 147.306534,28.1286 L147.306534,31.75 C147.3244,31.75 145.5314,33.3814 141.6408,33.3814 Z M116.4684,33.3814 C109.8346,33.3814 104.4558,28.738 104.4558,21.4236 C104.4558,14.4318 109.8346,9.46582 116.4684,9.46582 C123.1022,9.46582 128.4808,14.14496 128.4808,21.4236 C128.4808,28.8278 123.1022,33.3814 116.4684,33.3814 Z M116.4684,13.08722 C111.9682,13.08722 108.3286,16.58312 108.3286,21.4774 C108.3286,26.6048 111.9682,29.8676 116.4684,29.8676 C120.9686,29.8676 124.6082,26.6764 124.6082,21.4774 C124.6082,16.36798 120.9686,13.08722 116.4684,13.08722 Z M88.8038,33.471 C85.2718,33.471 82.1162,31.7678 80.0184,29.0788 L80.0184,42.3272 L76.325,42.3272 L76.325,9.87816 L80.0184,9.87816 L80.0184,13.84018 C82.0982,11.16896 85.2538,9.4479 88.8038,9.4479 C95.079,9.4479 100.1708,14.629 100.1708,21.4594 C100.1708,28.4334 95.079,33.471 88.8038,33.471 Z M88.1224,13.08722 C83.658,13.08722 80.0364,16.85204 80.0364,21.4774 C80.0364,26.1028 83.658,29.8676 88.1224,29.8676 C92.5868,29.8676 96.2084,26.3358 96.2084,21.4774 C96.2084,16.69068 92.5868,13.08722 88.1224,13.08722 Z" id="Shape" fill="#000000"></path>
                </g>
            </g>
        </g>
    </g>
</svg>