<?xml version="1.0" encoding="UTF-8"?>
<svg width="267px" height="44px" viewBox="0 0 267 44" version="1.1" xmlns="http://www.w3.org/2000/svg" xmlns:xlink="http://www.w3.org/1999/xlink">
    <!-- Generator: Sketch 62 (91390) - https://sketch.com -->
    <title>logo_snami</title>
    <desc>Created with Sketch.</desc>
    <g id="logos" stroke="none" stroke-width="1" fill="none" fill-rule="evenodd">
        <g transform="translate(-215.000000, -100.000000)" id="blueOnWhite">
            <g transform="translate(200.000000, 0.000000)">
                <g id="logo_snami" transform="translate(15.000000, 100.000000)">
                    <g id="snami_blue" fill="#0433FF">
                        <g id="Group">
                            <path d="M22.696375,43.4654919 C16.1285677,43.4654919 10.7038972,41.3759872 6.42232166,37.1964245 C2.14077527,33.0170594 0,27.8624867 0,21.732746 C0,15.563175 2.14077527,10.4086418 6.42232166,6.26906741 C10.7038972,2.0896865 16.1285677,0 22.696375,0 C26.6454001,0 30.2826229,0.895578801 33.6080849,2.68674036 C36.9751261,4.43810332 39.5939498,6.82629502 41.464556,9.85137472 L34.0445833,13.971034 C32.9637738,12.1002793 31.4257596,10.647465 29.4304574,9.6125516 C27.4351968,8.53784755 25.1905027,8.00049553 22.696375,8.00049553 C18.4563787,8.00049553 15.0270103,9.27423201 12.4081866,11.8216655 C9.83094206,14.3690989 8.54231981,17.6727924 8.54231981,21.732746 C8.54231981,25.7529088 9.83094206,29.0366872 12.4081866,31.5841207 C15.0270103,34.1315541 18.4563787,35.4052511 22.696375,35.4052511 C25.1905027,35.4052511 27.4351968,34.8878142 29.4304574,33.8529403 C31.4673388,32.7782363 33.005353,31.325422 34.0445833,29.4944579 L41.464556,33.6141172 C39.5939498,36.6391969 36.9959157,39.0473037 33.6704537,40.8385956 C30.3449917,42.5898598 26.6869377,43.4654919 22.696375,43.4654919 Z" id="Path" fill-rule="nonzero"></path>
                            <polygon id="Path" fill-rule="nonzero" points="64.1722874 13.228628 71.6205967 13.228628 71.6205967 43.4654919 64.1722874 43.4654919 64.1722874 31.8151527 52.6823704 31.8151527 52.6823704 43.4654919 45.2340611 43.4654919 45.2340611 13.228628 52.6823704 13.228628 52.6823704 24.9049332 64.1722874 24.9049332"></polygon>
                            <path d="M99.7051457,13.228628 L107.430895,13.228628 L107.430895,43.4654919 L99.7051457,43.4654919 L99.7051457,39.2850229 C97.3896174,42.0719012 94.1355773,43.4654919 89.9430254,43.4654919 C85.9505562,43.4654919 82.5168011,42.0146719 79.6421594,39.1132212 C76.8074543,36.1735293 75.3901018,32.5847962 75.3901018,28.34706 C75.3901018,24.1093237 76.8074543,20.5396923 79.6421594,17.6381659 C82.5168011,14.698474 85.9505562,13.228628 89.9430254,13.228628 C94.1355773,13.228628 97.3896174,14.622105 99.7051457,17.409097 L99.7051457,13.228628 Z M85.4513478,34.1882783 C87.0084787,35.677226 88.9849446,36.421662 91.3803463,36.421662 C93.7761473,36.421662 95.7526132,35.677226 97.3097441,34.1882783 C98.9068116,32.6611651 99.7051457,30.7140797 99.7051457,28.34706 C99.7051457,25.9800402 98.9068116,24.0520565 97.3097441,22.5631088 C95.7526132,21.0359956 93.7761473,20.27242 91.3803463,20.27242 C88.9849446,20.27242 87.0084787,21.0359956 85.4513478,22.5631088 C83.8942169,24.0520565 83.1158512,25.9800402 83.1158512,28.34706 C83.1158512,30.7140797 83.8942169,32.6611651 85.4513478,34.1882783 Z" id="Shape" fill-rule="nonzero"></path>
                            <polygon id="Path" fill-rule="nonzero" points="141.356441 13.228628 141.356441 43.4654919 134.107467 43.4654919 134.107467 25.9418368 126.742479 37.3952047 125.814362 37.3952047 118.391367 25.8273023 118.391367 43.4654919 111.2004 43.4654919 111.2004 13.228628 118.565389 13.228628 126.278421 26.0563712 133.991453 13.228628"></polygon>
                            <polygon id="Path" fill-rule="nonzero" points="165.969661 13.228628 171.512482 13.228628 171.512482 43.4654919 164.237434 43.4654919 164.237434 26.3999745 150.668766 43.4654919 145.125946 43.4654919 145.125946 13.228628 152.400994 13.228628 152.400994 30.2941075"></polygon>
                        </g>
                    </g>
                    <g id="check_blue" transform="translate(185.609398, 12.922173)">
                        <g id="Combined-Shape-2">
                            <g id="Group-2">
                                <path d="M14.7376852,30.5433186 L14.7377573,30.5173397 C6.51835096,30.0523814 0,23.404422 0,15.2716593 C0,7.13889668 6.51835096,0.490937242 14.7377573,0.0259789242 L14.7376852,0 L66.3195835,0 L66.3194074,0.0259730411 C74.5388628,0.490881161 81.0572687,7.13886238 81.0572687,15.2716593 C81.0572687,23.4044563 74.5388628,30.0524375 66.3194074,30.5173456 L66.3195835,30.5433186 L14.7376852,30.5433186 Z" id="Combined-Shape" fill="#0433FF"></path>
                                <ellipse id="Oval-Copy-2" fill="#FFFFFF" cx="65.3984782" cy="15.2716593" rx="13.8165799" ry="13.4749935"></ellipse>
                            </g>
                        </g>
                    </g>
                </g>
            </g>
        </g>
    </g>
</svg>