<?xml version="1.0" encoding="UTF-8"?>
<svg width="14px" height="13px" viewBox="0 0 14 13" version="1.1" xmlns="http://www.w3.org/2000/svg" xmlns:xlink="http://www.w3.org/1999/xlink">
    <!-- Generator: Sketch 62 (91390) - https://sketch.com -->
    <title>Group</title>
    <desc>Created with Sketch.</desc>
    <g id="Page-1" stroke="none" stroke-width="1" fill="none" fill-rule="evenodd">
        <g id="Group" fill-rule="nonzero">
            <path d="M5.31586635,1.00000012 C6.06437449,-0.333332 7.93565458,-0.333334 8.68416273,1.00000012 L13.7365538,10.0000001 C14.485062,11.3333 13.5494754,13.0000001 12.0524591,13.0000001 L1.94758942,13.0000001 C0.450568263,13.0000001 -0.485069836,11.3333 0.263439282,10.0000001 L5.31586635,1.00000012 Z" id="Path" fill="#FF5A6E"></path>
            <path d="M7,8.45103 C6.526574,8.45103 6.13855342,8.08985 6.12323312,7.63491 L6.00053553,3.99258 C5.98224062,3.44967 6.43502664,3 7,3 C7.56496355,3 8.01774957,3.44967 7.99946506,3.99258 L7.87676748,7.63491 C7.86143678,8.08985 7.4734162,8.45103 7,8.45103 Z M6.94935903,11 C6.4250423,11 6,10.5523064 6,9.99996979 C6,9.44771773 6.4250423,9 6.94935903,9 L7.0506295,9 C7.57494623,9 8,9.44771773 8,9.99996979 C8,10.5523064 7.57494623,11 7.0506295,11 L6.94935903,11 Z" id="Shape" fill="#FFFFFF"></path>
        </g>
    </g>
</svg>